PathFileType	4	(X/Y/Z)	T1_P2_NoVision_NoMovement_2_0-733.trc
DataRate	CameraRate	NumFrames	NumMarkers	Units	OrigDataRate	OrigDataStartFrame	OrigNumFrames
60	60	4	27	m	60	458	733
Frame#	Time	RHip			RKnee			RAnkle			RBigToe			RSmallToe			RHeel			LHip			LKnee			LAnkle			LBigToe			LSmallToe			LHeel			Neck			Head			Nose			RShoulder			RElbow			RWrist			RThumb			RIndex			RPinky			LShoulder			LElbow			LWrist			LThumb			LIndex			LPinky		
		X1	Y1	Z1	X2	Y2	Z2	X3	Y3	Z3	X4	Y4	Z4	X5	Y5	Z5	X6	Y6	Z6	X7	Y7	Z7	X8	Y8	Z8	X9	Y9	Z9	X10	Y10	Z10	X11	Y11	Z11	X12	Y12	Z12	X13	Y13	Z13	X14	Y14	Z14	X15	Y15	Z15	X16	Y16	Z16	X17	Y17	Z17	X18	Y18	Z18	X19	Y19	Z19	X20	Y20	Z20	X21	Y21	Z21	X22	Y22	Z22	X23	Y23	Z23	X24	Y24	Z24	X25	Y25	Z25	X26	Y26	Z26	X27	Y27	Z27
459	7.65	465.6533167993048	3644.3101808432325	539.5645400719785	874.0741678918978	3703.28745673115	563.5044675565025	1256.2071912704266	3778.899091163563	627.6239175100666	1316.3251981636572	3610.3203393110957	557.1705501263341	1312.1778465754237	3674.8456198365566	520.9796980431948	1281.4070308679213	3761.2075598037895	633.1053556137387	469.6157953347244	3526.4289230467875	738.1981693203544	857.9726597394006	3542.3182587974156	737.237469085127	1226.054060343144	3601.748443255842	725.0330692351404	1311.1147884222182	3505.656850630874	673.4492668875586	1271.221471527979	3452.277184349127	715.253396743527	1265.8665878217942	3616.3655279914738	708.7206259066943	-124.11552033865067	3559.747913662384	642.782409722483	-378.1455776981147	3509.4908857479068	626.7179752299375	-236.1288211691586	3482.6501405305694	617.2446106904127	-39.369631609662804	3723.857714452126	544.9574471174467	199.7140201744834	3642.8556618778202	423.66047247187174	345.61474400332673	3467.1168024650806	493.9611767580786	434.61005690943256	3542.822747252138	626.6874663854896	439.0179846110011	3492.104987289981	616.2974077140194	472.90114397210345	3466.4257274931156	595.903595671333	-22.404649563580257	3554.5475352725966	829.6714184292164	221.5936101324013	3418.106358151687	779.2414996839897	360.0130423679385	3412.430057279044	602.011803631158	413.07514948114977	3446.2295958536088	500.47946954593124	433.8987821708057	3447.7522828697083	498.49162182824176	463.25603098546105	3432.462058246632	575.4547581618517
460	7.666666666666667	464.5891658713015	3639.6307015498423	536.0357328689317	874.5529307837214	3704.659187838696	563.450310298271	1256.3640314064196	3778.1592266094176	627.2757442709423	1314.1923887219816	3607.213064519524	553.8700145445779	1311.825069069228	3674.6201021081224	520.9297538312644	1282.0964213246855	3761.7824480170484	633.0203076074915	468.45265317497416	3523.6821857075865	735.9231165890219	858.7139874129984	3544.617649375853	738.1660120834697	1226.260756708326	3601.8938200107577	725.1301385588986	1309.2768643588793	3502.5270306948432	672.9865616771111	1271.1820017074278	3452.238747927996	715.21332976253	1264.683581504732	3615.045064064724	707.5783838353369	-124.5155476698786	3560.352330616491	643.0793011811454	-378.6599859509738	3510.254809313984	627.0112190166462	-236.07228131871727	3478.829888259515	617.6979107172544	-39.39256173500723	3723.8269749315305	544.8748762176966	200.39187210886584	3642.7305428052437	423.5149068695283	345.2369798486014	3467.087491071905	493.94985798857743	434.16189911027703	3536.8727972139545	624.0191351395328	437.98967098249005	3487.461401383801	615.0117315415172	469.50714125814983	3458.4678195341485	593.5365147685116	-21.323885289827686	3553.600952792411	829.1591773418445	221.58572391324878	3418.4187189782224	779.3114870082053	360.255520041409	3411.990414158476	602.0176817920683	411.9675785239728	3435.466947425007	499.0815483391926	434.27868413283744	3447.5412765705346	500.0402672109167	462.4530989833222	3431.2125127975355	575.8649199032167
461	7.683333333333334	464.94971425374496	3636.3821604966997	533.299882840856	874.267062273092	3706.1745523680725	562.4046712004343	1257.141450922411	3776.8206386133784	626.4976982700227	1312.642147810063	3603.7281671042047	550.0741102728297	1311.4764781941471	3674.344563657467	520.8312275764489	1283.4211770547593	3761.6666216925446	632.4125776149953	467.9195497780987	3522.460883666	734.7294363575844	860.5770655298742	3547.5186721102255	739.2702716811657	1225.2989051446161	3601.4389468303575	725.0783752197422	1307.2886208441053	3497.7349567150895	672.6333768488809	1271.1405397170372	3452.288596793711	715.2479787439762	1264.2373724332058	3615.2561876539235	708.1162182016841	-124.0736856888337	3560.415642375904	643.0482816346539	-378.70442753761506	3510.3724781126084	626.9728366786663	-235.8959288337407	3472.118610306682	615.9726289957096	-39.39470341568717	3723.759435321699	544.8369251986638	201.7209867522858	3641.637578565574	422.99988802270934	345.334494950722	3467.3818393440706	494.10007328034084	433.04499836453545	3528.577229751525	619.1394074431354	436.6264524568553	3483.0699696961965	613.7496778357565	465.96715644667165	3451.4577969291427	591.2694347177753	-19.918543357697718	3551.949737443623	828.0726697874006	221.45141856412783	3418.591966679212	779.2026926769003	359.3772486296562	3408.906331017369	601.2282436653533	411.127631022252	3423.5949354997365	498.05981599289646	435.2230810165054	3447.994454479143	503.21091666509426	460.3776005404452	3425.676667147357	574.2577154897498
462	7.7	466.63957845013755	3637.163860825674	533.6199813807499	873.718570744771	3706.099308531619	559.9355795473534	1258.2230240822953	3775.9190737584404	625.8895361707029	1313.6072005597168	3602.8457679026287	549.1094134346827	1312.381858264734	3674.750585106746	520.9097247025898	1283.9699801425331	3758.2514993543773	631.0618298863789	468.1189364659607	3523.9516567911382	735.8091445393425	863.8541338934588	3549.6895683832186	739.9666263057934	1225.5610452421215	3601.0629985390647	724.8873362445405	1307.906553561034	3496.259633497551	673.746245755819	1271.1871709129268	3452.44665637463	715.3862807897272	1265.6942380616194	3616.458934206009	709.419425900413	-123.1807127346091	3559.6255310908537	642.6807462372941	-378.64875355331685	3510.215390782162	626.9250085347488	-235.7025815929552	3466.6979825952703	614.2299227606319	-39.365638041221445	3723.822082546157	544.8535008383193	203.23008680019657	3639.9809694781584	422.3048749921684	345.5084344452379	3467.766459217531	494.3095696006386	431.61179791766904	3519.097485779008	613.1900229016686	435.48737836223154	3478.9218113271972	612.5295951681167	463.2873862333588	3446.118203154571	589.4343622868134	-18.836346828317552	3550.7676984620616	827.3153877291422	221.33208503451255	3418.4781258209077	778.8957051580745	357.70347490186043	3402.763742617375	599.5211780867728	411.24185577511935	3417.5891693973813	498.7803319043614	436.3379142653214	3449.5645817699105	507.4410577394817	458.0225671442678	3418.136505591381	571.8768621622578
